<svg width="32" height="33" viewBox="0 0 32 33" fill="none" xmlns="http://www.w3.org/2000/svg">
<g clip-path="url(#clip0_45_65)">
<path d="M32 16.5883C32 7.69628 24.836 0.488281 16 0.488281C7.15997 0.490281 -0.00402832 7.69628 -0.00402832 16.5903C-0.00402832 24.6243 5.84797 31.2843 13.496 32.4923V21.2423H9.43597V16.5903H13.5V13.0403C13.5 9.00628 15.89 6.77828 19.544 6.77828C21.296 6.77828 23.126 7.09228 23.126 7.09228V11.0523H21.108C19.122 11.0523 18.502 12.2943 18.502 13.5683V16.5883H22.938L22.23 21.2403H18.5V32.4903C26.148 31.2823 32 24.6223 32 16.5883Z" fill="white"/>
</g>
<defs>
<clipPath id="clip0_45_65">
<rect width="32" height="32" fill="white" transform="translate(0 0.490173)"/>
</clipPath>
</defs>
</svg>
