<svg width="15" height="15" viewBox="0 0 15 15" fill="none" xmlns="http://www.w3.org/2000/svg">
<path d="M6.04218 1.25C5.29257 1.2504 4.5535 1.42662 3.88438 1.76449C3.21526 2.10236 2.63475 2.59246 2.18952 3.19541C1.74429 3.79835 1.44674 4.49731 1.3208 5.23611C1.19486 5.97492 1.24404 6.73296 1.46438 7.44931C1.68472 8.16566 2.07008 8.82033 2.58949 9.36072C3.10889 9.90111 3.74786 10.3121 4.45503 10.5608C5.16219 10.8094 5.91784 10.8887 6.66123 10.7923C7.40462 10.6958 8.11501 10.4264 8.73532 10.0056L11.6968 12.9641C11.7791 13.0523 11.8783 13.1231 11.9885 13.1722C12.0987 13.2213 12.2177 13.2477 12.3383 13.2499C12.459 13.252 12.5788 13.2298 12.6907 13.1846C12.8026 13.1394 12.9042 13.0722 12.9895 12.9869C13.0748 12.9016 13.1421 12.8 13.1873 12.6881C13.2325 12.5763 13.2547 12.4565 13.2525 12.3358C13.2504 12.2152 13.224 12.0963 13.1749 11.9861C13.1258 11.8759 13.055 11.7767 12.9667 11.6945L10.0076 8.7336C10.4972 8.01324 10.7811 7.1731 10.8288 6.30351C10.8765 5.43392 10.6862 4.56776 10.2785 3.79819C9.87067 3.02861 9.26079 2.38471 8.51438 1.93574C7.76797 1.48676 6.91327 1.24968 6.04218 1.25ZM3.04715 6.04104C3.04715 5.24687 3.36269 4.48524 3.92437 3.92368C4.48605 3.36212 5.24785 3.04664 6.04218 3.04664C6.83652 3.04664 7.59832 3.36212 8.15999 3.92368C8.72167 4.48524 9.03722 5.24687 9.03722 6.04104C9.03722 6.8352 8.72167 7.59684 8.15999 8.1584C7.59832 8.71995 6.83652 9.03543 6.04218 9.03543C5.24785 9.03543 4.48605 8.71995 3.92437 8.1584C3.36269 7.59684 3.04715 6.8352 3.04715 6.04104Z" fill="white"/>
</svg>
