<svg width="10" height="10" viewBox="0 0 10 10" fill="none" xmlns="http://www.w3.org/2000/svg">
<path d="M9.35833 2.50008C9.0375 2.64591 8.69166 2.74175 8.33333 2.78758C8.7 2.56675 8.98333 2.21675 9.11666 1.79591C8.77083 2.00425 8.3875 2.15008 7.98333 2.23341C7.65416 1.87508 7.19166 1.66675 6.66666 1.66675C5.6875 1.66675 4.8875 2.46675 4.8875 3.45425C4.8875 3.59591 4.90416 3.73341 4.93333 3.86258C3.45 3.78758 2.12916 3.07508 1.25 1.99591C1.09583 2.25841 1.00833 2.56675 1.00833 2.89175C1.00833 3.51258 1.32083 4.06258 1.80416 4.37508C1.50833 4.37508 1.23333 4.29175 0.991663 4.16675V4.17925C0.991663 5.04591 1.60833 5.77092 2.425 5.93341C2.1628 6.00517 1.88754 6.01515 1.62083 5.96258C1.734 6.31778 1.95564 6.62858 2.25459 6.8513C2.55354 7.07402 2.91477 7.19745 3.2875 7.20425C2.65568 7.70443 1.87249 7.9748 1.06666 7.97091C0.924996 7.97091 0.783329 7.96258 0.641663 7.94591C1.43333 8.45425 2.375 8.75008 3.38333 8.75008C6.66666 8.75008 8.47083 6.02508 8.47083 3.66258C8.47083 3.58341 8.47083 3.50841 8.46666 3.42925C8.81666 3.17925 9.11666 2.86258 9.35833 2.50008Z" fill="white"/>
</svg>
